<svg width="450" height="264" viewBox="0 0 450 264" fill="none" xmlns="http://www.w3.org/2000/svg">
<rect width="450" height="264" fill="#100A04"/>
<path d="M28 110.408C28 109.16 28.96 108.2 30.208 108.2H35.584C36.832 108.2 37.792 107.24 37.792 105.992V98.6001H28V89.0001H55.168C56.416 89.0001 57.376 89.9601 57.376 91.2081V96.3921C57.376 97.6401 56.416 98.6001 55.168 98.6001H47.584V105.992C47.584 107.24 46.624 108.2 45.376 108.2H40C38.752 108.2 37.792 109.16 37.792 110.408V117.8H28V110.408ZM28 79.4001V69.8001H37.792V62.4081C37.792 61.1601 38.752 60.2001 40 60.2001H45.376C46.624 60.2001 47.584 59.2401 47.584 57.9921V50.6001H57.376V57.9921C57.376 59.2401 56.416 60.2001 55.168 60.2001H49.792C48.544 60.2001 47.584 61.1601 47.584 62.4081V77.1921C47.584 78.4401 46.624 79.4001 45.376 79.4001H28ZM57.376 117.8V110.408C57.376 109.16 58.336 108.2 59.584 108.2H64.96C66.208 108.2 67.168 107.24 67.168 105.992V91.2081C67.168 89.9601 68.128 89.0001 69.376 89.0001H86.752V98.6001H76.96V105.992C76.96 107.24 76 108.2 74.752 108.2H69.376C68.128 108.2 67.168 109.16 67.168 110.408V117.8H57.376ZM57.376 77.1921V72.0081C57.376 70.7601 58.336 69.8001 59.584 69.8001H67.168V62.4081C67.168 61.1601 68.128 60.2001 69.376 60.2001H74.752C76 60.2001 76.96 59.2401 76.96 57.9921V50.6001H86.752V57.9921C86.752 59.2401 85.792 60.2001 84.544 60.2001H79.168C77.92 60.2001 76.96 61.1601 76.96 62.4081V69.8001H86.752V79.4001H59.584C58.336 79.4001 57.376 78.4401 57.376 77.1921Z" fill="#FF993C"/>
<path d="M190.576 41H200.368V48.392C200.368 49.64 199.408 50.6 198.16 50.6H192.784C191.536 50.6 190.576 51.56 190.576 52.808V60.2H178C176.752 60.2 175.792 61.16 175.792 62.408V77.192C175.792 78.44 176.752 79.4 178 79.4H212.752C214 79.4 214.96 80.36 214.96 81.608V86.792C214.96 88.04 215.92 89 217.168 89H222.544C223.792 89 224.752 89.96 224.752 91.208V105.992C224.752 107.24 223.792 108.2 222.544 108.2H217.168C215.92 108.2 214.96 109.16 214.96 110.408V115.592C214.96 116.84 214 117.8 212.752 117.8H202.576C201.328 117.8 200.368 118.76 200.368 120.008V127.4H190.576V120.008C190.576 118.76 191.536 117.8 192.784 117.8H198.16C199.408 117.8 200.368 116.84 200.368 115.592V108.2H212.752C214 108.2 214.96 107.24 214.96 105.992V91.208C214.96 89.96 214 89 212.752 89H178C176.752 89 175.792 88.04 175.792 86.792V81.608C175.792 80.36 174.832 79.4 173.584 79.4H168.208C166.96 79.4 166 78.44 166 77.192V62.408C166 61.16 166.96 60.2 168.208 60.2H173.584C174.832 60.2 175.792 59.24 175.792 57.992V52.808C175.792 51.56 176.752 50.6 178 50.6H188.368C189.616 50.6 190.576 49.64 190.576 48.392V41ZM166 105.992V98.6H175.792V105.992C175.792 107.24 176.752 108.2 178 108.2H190.576V115.592C190.576 116.84 189.616 117.8 188.368 117.8H178C176.752 117.8 175.792 116.84 175.792 115.592V110.408C175.792 109.16 174.832 108.2 173.584 108.2H168.208C166.96 108.2 166 107.24 166 105.992ZM200.368 60.2V52.808C200.368 51.56 201.328 50.6 202.576 50.6H212.752C214 50.6 214.96 51.56 214.96 52.808V57.992C214.96 59.24 215.92 60.2 217.168 60.2H222.544C223.792 60.2 224.752 61.16 224.752 62.408V69.8H214.96V62.408C214.96 61.16 214 60.2 212.752 60.2H200.368Z" fill="#FF993C"/>
<path d="M256.792 213.8C255.544 213.8 254.584 214.76 254.584 216.008V221.192C254.584 222.44 253.624 223.4 252.376 223.4H235V213.8H252.376C253.624 213.8 254.584 212.84 254.584 211.592V158.408C254.584 157.16 253.624 156.2 252.376 156.2H235V146.6H252.376C253.624 146.6 254.584 147.56 254.584 148.808V153.992C254.584 155.24 255.544 156.2 256.792 156.2H262.168C263.416 156.2 264.376 157.16 264.376 158.408V211.592C264.376 212.84 263.416 213.8 262.168 213.8H256.792Z" fill="#FF993C"/>
<path d="M306 117.8C304.752 117.8 303.792 116.84 303.792 115.592V93.8001H313.584V115.592C313.584 116.84 314.544 117.8 315.792 117.8H333.168V127.4H315.888C314.64 127.4 313.584 126.44 313.584 125.192V120.008C313.584 118.76 312.624 117.8 311.376 117.8H306ZM294 93.8001V84.2001H301.584C302.832 84.2001 303.792 83.2401 303.792 81.9921V62.4081C303.792 61.1601 304.752 60.2001 306 60.2001H311.376C312.624 60.2001 313.584 59.2401 313.584 57.9921V52.8081C313.584 51.5601 314.544 50.6001 315.792 50.6001H333.168V60.2001H315.792C314.544 60.2001 313.584 61.1601 313.584 62.4081V81.9921C313.584 83.2401 312.624 84.2001 311.376 84.2001H306C304.752 84.2001 303.792 85.1601 303.792 86.4081V91.5921C303.792 92.8401 302.832 93.8001 301.584 93.8001H294Z" fill="#FF993C"/>
<path d="M392.376 168.008C392.376 166.76 393.336 165.8 394.584 165.8H407.16V175.4H394.584C393.336 175.4 392.376 176.36 392.376 177.608V182.792C392.376 184.04 393.336 185 394.584 185H409.752C411 185 411.96 184.04 411.96 182.792V158.408C411.96 157.16 411 156.2 409.752 156.2H375C373.752 156.2 372.792 157.16 372.792 158.408V201.992C372.792 203.24 373.752 204.2 375 204.2H421.752V213.8H375C373.752 213.8 372.792 212.84 372.792 211.592V206.408C372.792 205.16 371.832 204.2 370.584 204.2H365.208C363.96 204.2 363 203.24 363 201.992V158.408C363 157.16 363.96 156.2 365.208 156.2H370.584C371.832 156.2 372.792 155.24 372.792 153.992V148.808C372.792 147.56 373.752 146.6 375 146.6H409.752C411 146.6 411.96 147.56 411.96 148.808V153.992C411.96 155.24 412.92 156.2 414.168 156.2H419.544C420.792 156.2 421.752 157.16 421.752 158.408V182.792C421.752 184.04 420.792 185 419.544 185H414.168C412.92 185 411.96 185.96 411.96 187.208V192.392C411.96 193.64 411 194.6 409.752 194.6H394.584C393.336 194.6 392.376 193.64 392.376 192.392V187.208C392.376 185.96 391.416 185 390.168 185H384.792C383.544 185 382.584 184.04 382.584 182.792V177.608C382.584 176.36 383.544 175.4 384.792 175.4H390.168C391.416 175.4 392.376 174.44 392.376 173.192V168.008Z" fill="#FF993C"/>
<path d="M145.96 201.992C145.96 203.24 145 204.2 143.752 204.2H138.376C137.128 204.2 136.168 205.16 136.168 206.408V211.592C136.168 212.84 135.208 213.8 133.96 213.8H109C107.752 213.8 106.792 212.84 106.792 211.592V206.408C106.792 205.16 105.832 204.2 104.584 204.2H99.208C97.96 204.2 97 203.24 97 201.992V187.208C97 185.96 97.96 185 99.208 185H104.584C105.832 185 106.792 184.04 106.792 182.792V177.608C106.792 176.36 105.832 175.4 104.584 175.4H99.208C97.96 175.4 97 174.44 97 173.192V158.408C97 157.16 97.96 156.2 99.208 156.2H104.584C105.832 156.2 106.792 155.24 106.792 153.992V148.808C106.792 147.56 107.752 146.6 109 146.6H133.96C135.208 146.6 136.168 147.56 136.168 148.808V153.992C136.168 155.24 137.128 156.2 138.376 156.2H143.656C144.904 156.2 145.864 157.16 145.864 158.408V165.8H136.168V158.408C136.168 157.16 135.208 156.2 133.96 156.2H109C107.752 156.2 106.792 157.16 106.792 158.408V173.192C106.792 174.44 107.752 175.4 109 175.4H121.48V185H109C107.752 185 106.792 185.96 106.792 187.208V201.992C106.792 203.24 107.752 204.2 109 204.2H133.96C135.208 204.2 136.168 203.24 136.168 201.992V187.208C136.168 185.96 137.128 185 138.376 185H143.752C145 185 145.96 184.04 145.96 182.792V177.608C145.96 176.36 146.92 175.4 148.168 175.4H155.752V185H148.168C146.92 185 145.96 185.96 145.96 187.208V201.992Z" fill="#FF993C"/>
</svg>
